<svg xmlns="http://www.w3.org/2000/svg" viewBox="0 0 80 80" width="80" height="80">
  <style>
    .ic  { fill:none; stroke:#c6460c; stroke-width:1.8; stroke-linecap:round; stroke-linejoin:round }
    .ic2 { /*fill:#c6460c;*/stroke-width: 25; }
    .lbl {
      font-family: ui-monospace, 'SF Mono', Menlo, Consolas, monospace;
      font-weight:700; fill:#c6460c; text-anchor:middle; dominant-baseline:central; letter-spacing:-0.5px
    }
    .lbl2 { letter-spacing: 1px; }
  </style>
  <g transform="translate(2, 0)">
    <path d="M8 22 Q8 18 12 18 L30 18 L33 14 L64 14 Q68 14 68 18 L68 22" class="ic"/>
    <rect x="8" y="22" width="60" height="44" rx="3" class="ic"/>
    
    <g transform="translate(10, 26) scale(0.0725)" class="ic">
      <path d="M256 70C149.9 70 64 155.9 64 262c0 84.8 55 156.7 131.3 182.1&#10;               9.6 3.5 19.7-3.6 19.7-13.8v-48.3c-53.5 11.6-64.7-25.8-64.7-25.8&#10;               -8.7-22.2-21.3-28.1-21.3-28.1-17.4-11.9 1.3-11.7 1.3-11.7&#10;               19.3 1.4 29.4 19.8 29.4 19.8 17.1 29.3 44.9 20.8 55.8 15.9&#10;               1.7-12.4 6.7-20.8 12.2-25.6-42.7-4.9-87.5-21.3-87.5-95&#10;               0-21 7.5-38.2 19.8-51.7-2-4.9-8.6-24.5 1.9-51&#10;               0 0 16.1-5.2 52.8 19.7 15.3-4.3 31.7-6.4 48-6.5&#10;               16.3 0.1 32.7 2.2 48 6.5 36.6-24.8 52.7-19.7 52.7-19.7&#10;               10.5 26.5 3.9 46.1 1.9 51 12.3 13.5 19.7 30.7 19.7 51.7&#10;               0 73.9-45 90.1-87.8 94.8 6.9 5.9 13 17.7 13 35.7&#10;               v52.9c0 10.2 10 17.4 19.7 13.8C377.1 418.6 432 346.7 432 262&#10;               432 155.9 346.1 70 256 70z" class="ic ic2" />
    </g>
    <!--
    <rect x="33" y="44" width="29" height="16" rx="4" class="ic" stroke-width="1.8"/>
    <text x="53" y="32" class="lbl lbl2" font-size="10">...</text>
    -->
    <text x="54" y="55" class="lbl lbl2" font-size="10">GIT</text>
  </g>
</svg>
