<svg xmlns="http://www.w3.org/2000/svg" version="1.2" viewBox="0 0 70.629 70.629" xml:space="preserve" preserveAspectRatio="xMidYMid meet" baseProfile="tiny-ps"><title>OKZGN</title>
<path d="M70.629,35.485c0,19.368-15.703,35.071-35.073,35.071c-19.371,0-35.074-15.703-35.074-35.071  c0-19.372,15.704-35.074,35.074-35.074C54.927,0.412,70.629,16.114,70.629,35.485z M35.556,8.935  c-14.663,0-26.549,11.887-26.549,26.549c0,14.662,11.887,26.548,26.549,26.548s26.549-11.887,26.549-26.548  C62.105,20.822,50.219,8.935,35.556,8.935z M53.581,35.484c0,9.955-8.069,18.025-18.024,18.025S17.53,45.439,17.53,35.484  c0-9.955,8.072-18.025,18.027-18.025S53.581,25.529,53.581,35.484z M35.557,25.982c-5.248,0-9.502,4.254-9.502,9.502  s4.254,9.502,9.502,9.502c5.248,0,9.501-4.254,9.501-9.502S40.804,25.982,35.557,25.982z"/>
</svg>
