<svg xmlns="http://www.w3.org/2000/svg" viewBox="0 0 1200 675" width="100%" height="100%">
  <defs>
    <!-- BG GRADIENT -->
    <!--<linearGradient id="bgGradient" x1="0%" y1="0%" x2="100%" y2="100%">
      <stop offset="0%" stop-color="#c0efff" />
      <stop offset="40%" stop-color="#adceef" />
      <stop offset="100%" stop-color="#aacaeb" />
    </linearGradient>-->

    <!-- SHINE -->
    <filter id="glow" x="-20%" y="-20%" width="140%" height="140%">
      <feGaussianBlur stdDeviation="8" result="blur" />
      <feMerge>
        <feMergeNode in="blur" />
        <feMergeNode in="SourceGraphic" />
      </feMerge>
    </filter>

    <!-- SHINE -->
    <filter id="strongGlow" x="-50%" y="-50%" width="200%" height="200%">
      <feGaussianBlur stdDeviation="4" result="blur" />
      <feComponentTransfer in="blur" result="glow">
        <feFuncA type="linear" slope="2"/>
      </feComponentTransfer>
      <feMerge>
        <feMergeNode in="glow" />
        <feMergeNode in="SourceGraphic" />
      </feMerge>
    </filter>

    <!-- STAR -->
    <g id="star">
      <path d="M 0,-10 C 0,-2 2,0 10,0 C 2,0 0,2 0,10 C 0,2 -2,0 -10,0 C -2,0 0,-2 0,-10 Z" fill="#ffffff" filter="url(#strongGlow)"/>
    </g>
  </defs>

  <!-- BG -->
  <rect width="1200" height="675" fill="none" /><!--url(#bgGradient)-->

  <!-- PATTERN MESH -->
  <g stroke="rgba(255,255,255,0.05)" stroke-width="1">
    <line x1="100" y1="0" x2="100" y2="675" />
    <line x1="300" y1="0" x2="300" y2="675" />
    <line x1="900" y1="0" x2="900" y2="675" />
    <line x1="1100" y1="0" x2="1100" y2="675" />
    <line x1="0" y1="150" x2="1200" y2="150" />
    <line x1="0" y1="525" x2="1200" y2="525" />
  </g>

  <!-- ==================== CIRCUIT LINES LEFT ==================== -->
  <g fill="none" stroke="rgba(255,255,255,0.5)" stroke-width="2" stroke-linejoin="round" stroke-linecap="round">
    <path d="M 370 337 L 250 337 L 220 307 L 150 307" />
    <path d="M 360 280 L 290 280 L 250 240 L 160 240 L 130 210 L 130 160" />
    <path d="M 365 390 L 300 390 L 260 430 L 180 430 L 150 460 L 100 460" />
    <path d="M 380 230 L 320 170 L 280 170 L 250 140 L 250 90" />
    <path d="M 290 280 L 270 300 L 220 300 L 190 270 L 110 270" />
    <path d="M 340 450 L 300 490 L 260 490 L 230 520 L 230 580" />
    <path d="M 180 430 L 160 410 L 110 410 L 80 380 L 40 380" />
    <path d="M 230 520 L 200 520 L 170 550 L 120 550" />
    <path d="M 160 240 L 140 260 L 90 260 L 60 230 L 40 230" />
    <path d="M 320 170 L 320 130 L 290 100 L 260 100" />
    <path d="M 380 490 L 380 540 L 350 570 L 300 570" />
    <path d="M 260 490 L 260 550 L 280 570 L 280 620" />
    <path d="M 130 160 L 160 130 L 160 80" />
  </g>

  <!-- ==================== CIRCUIT LINES RIGHT ==================== -->
  <g fill="none" stroke="rgba(255,255,255,0.5)" stroke-width="2" stroke-linejoin="round" stroke-linecap="round">
    <path d="M 830 337 L 950 337 L 980 307 L 1050 307" />
    <path d="M 840 280 L 910 280 L 950 240 L 1040 240 L 1070 210 L 1070 160" />
    <path d="M 835 390 L 900 390 L 940 430 L 1020 430 L 1050 460 L 1100 460" />
    <path d="M 820 230 L 880 170 L 920 170 L 950 140 L 950 90" />
    <path d="M 910 280 L 930 300 L 980 300 L 1010 270 L 1090 270" />
    <path d="M 860 450 L 900 490 L 940 490 L 970 520 L 970 580" />
    <path d="M 1020 430 L 1040 410 L 1090 410 L 1120 380 L 1160 380" />
    <path d="M 970 520 L 1000 520 L 1030 550 L 1080 550" />
    <path d="M 1040 240 L 1060 260 L 1110 260 L 1140 230 L 1160 230" />
    <path d="M 880 170 L 880 130 L 910 100 L 940 100" />
    <path d="M 820 490 L 820 540 L 850 570 L 900 570" />
    <path d="M 940 490 L 940 550 L 920 570 L 920 620" />
    <path d="M 1070 160 L 1040 130 L 1040 80" />
    
    <!-- CURVES -->
    <path d="M 680 110 A 50 50 0 0 1 780 110" />
    <path d="M 760 40 L 760 80 L 790 110 L 820 110" />
    <path d="M 800 60 L 850 60 L 880 90" />
  </g>

  <!-- ==================== CIRCUITS UP AND DOWN ==================== -->
  <g fill="none" stroke="rgba(255,255,255,0.5)" stroke-width="2" stroke-linecap="round">
    <!-- UP -->
    <path d="M 570 100 L 570 50" />
    <path d="M 600 100 L 600 30" />
    <path d="M 630 100 L 630 0" />
    <path d="M 540 110 L 540 80 L 520 80" />
    <path d="M 450 110 L 410 110 L 410 80" />
    <path d="M 480 110 L 480 60 L 460 40 L 430 40" />

    <!-- DOWN -->
    <path d="M 570 575 L 570 650" />
    <path d="M 600 575 L 600 675" />
    <path d="M 630 575 L 630 630" />
    <path d="M 660 560 L 660 600 L 680 620 L 720 620" />
    <path d="M 520 560 L 520 620 L 480 620 L 460 640" />
    <path d="M 540 570 L 540 600 L 500 600 L 480 580" />
  </g>

  <!-- ==================== DOTS AND NODES CIRCLES ==================== -->
  <!-- SEGMENT END CIRLE -->
  <g fill="#ffffff" stroke="rgba(255,255,255,0.5)" stroke-width="1.5">
    <!-- NODE LEFT -->
    <circle cx="150" cy="307" r="4" />
    <circle cx="130" cy="160" r="3" />
    <circle cx="100" cy="460" r="4" />
    <circle cx="250" cy="90" r="3" />
    <circle cx="110" cy="270" r="3" />
    <circle cx="230" cy="580" r="4" />
    <circle cx="40" cy="380" r="3" />
    <circle cx="120" cy="550" r="3" />
    <circle cx="40" cy="230" r="4" />
    <circle cx="260" cy="100" r="3" />
    <circle cx="300" cy="570" r="3" />
    <circle cx="280" cy="620" r="3" />
    <circle cx="160" cy="80" r="3" />
    
    <!-- NODE RIGHT -->
    <circle cx="1050" cy="307" r="4" />
    <circle cx="1070" cy="160" r="3" />
    <circle cx="1100" cy="460" r="4" />
    <circle cx="950" cy="90" r="3" />
    <circle cx="1090" cy="270" r="3" />
    <circle cx="970" cy="580" r="4" />
    <circle cx="1160" cy="380" r="3" />
    <circle cx="1080" cy="550" r="3" />
    <circle cx="1160" cy="230" r="4" />
    <circle cx="940" cy="100" r="3" />
    <circle cx="900" cy="570" r="3" />
    <circle cx="920" cy="620" r="3" />
    <circle cx="1040" cy="80" r="3" />
    
    <!-- NODES -->
    <circle cx="570" cy="50" r="3" />
    <circle cx="600" cy="30" r="4" />
    <circle cx="520" cy="80" r="3" />
    <circle cx="410" cy="80" r="3" />
    <circle cx="430" cy="40" r="3" />
    <circle cx="570" cy="650" r="3" />
    <circle cx="630" cy="630" r="3" />
    <circle cx="720" cy="620" r="4" />
    <circle cx="460" cy="640" r="3" />
    <circle cx="480" cy="580" r="3" />
  </g>

  <!-- ==================== BIG CIRLE ==================== -->
  <g>
    <circle cx="600" cy="337.5" r="235" fill="none" stroke="rgba(255, 255, 255, 0.33)" stroke-width="6" opacity="0.3" filter="url(#glow)" />
    <circle cx="600" cy="337.5" r="235" fill="none" stroke="rgba(255, 255, 255, 0.33)" stroke-width="1.5" opacity="0.9" />
    <circle cx="600" cy="337.5" r="230" fill="rgba(255, 255, 255, 0.33)" opacity="0.03" />
  </g>

  <!-- ==================== DOTS ==================== -->

  <use href="#star" x="720" y="120" transform="scale(0.8)" />
  <use href="#star" x="800" y="550" transform="scale(0.6)" />
  
  <circle cx="440" cy="190" r="15" fill="#c0efff" opacity="0.6" filter="url(#strongGlow)" />
  <circle cx="270" cy="430" r="5" fill="#c0efff" filter="url(#strongGlow)" />

  <circle cx="800" cy="90" r="4" fill="#ffeeaa" filter="url(#strongGlow)" />
  <circle cx="960" cy="260" r="3" fill="#ffeeaa" filter="url(#strongGlow)" />
  <circle cx="1090" cy="520" r="4" fill="#ffeeaa" filter="url(#strongGlow)" />
  <circle cx="260" cy="380" r="3" fill="#ffeeaa" filter="url(#strongGlow)" />
  <circle cx="150" cy="490" r="4" fill="#ffeeaa" filter="url(#strongGlow)" />

  <circle cx="340" cy="200" r="3" fill="#c0efff" filter="url(#strongGlow)" />
  <circle cx="250" cy="560" r="3" fill="#c0efff" filter="url(#strongGlow)" />
  <circle cx="890" cy="450" r="3" fill="#c0efff" filter="url(#strongGlow)" />
  <circle cx="1000" cy="490" r="4" fill="#c0efff" filter="url(#strongGlow)" />
  <circle cx="720" cy="660" r="3" fill="#c0efff" filter="url(#strongGlow)" />
</svg>