<svg xmlns="http://www.w3.org/2000/svg" viewBox="0 0 80 80" width="80" height="80">
  <style>.ic{fill:none;stroke:#004e9b;stroke-width:1.8;stroke-linecap:round;stroke-linejoin:round}.ic2{stroke-width:2.2}</style>
  <g transform="translate(-2,-2) scale(1.075)">
    <rect x="22" y="22" width="36" height="36" rx="4" class="ic"/>
    <rect x="26" y="26" width="28" height="28" rx="2" class="ic"/>
    <!--<line x1="36" y1="30" x2="36" y2="50" class="ic" stroke-width="1.1"/>
    <line x1="44" y1="30" x2="44" y2="50" class="ic" stroke-width="1.1"/>
    <line x1="30" y1="36" x2="50" y2="36" class="ic" stroke-width="1.1"/>
    <line x1="30" y1="44" x2="50" y2="44" class="ic" stroke-width="1.1"/>-->
    <line x1="13" y1="32" x2="20" y2="32" class="ic"/>
    <line x1="13" y1="40" x2="20" y2="40" class="ic"/>
    <line x1="13" y1="48" x2="20" y2="48" class="ic"/>
    <line x1="60" y1="32" x2="67" y2="32" class="ic"/>
    <line x1="60" y1="40" x2="67" y2="40" class="ic"/>
    <line x1="60" y1="48" x2="67" y2="48" class="ic"/>
    <line x1="31" y1="13" x2="31" y2="20" class="ic"/>
    <line x1="41" y1="13" x2="41" y2="20" class="ic"/>
    <line x1="51" y1="13" x2="51" y2="20" class="ic"/>
    <line x1="31" y1="60" x2="31" y2="67" class="ic"/>
    <line x1="41" y1="60" x2="41" y2="67" class="ic"/>
    <line x1="51" y1="60" x2="51" y2="67" class="ic"/>
  </g>

  <g transform="translate(12, 12) scale(0.7)">
    <line x1="32" y1="50" x2="37" y2="32" class="ic ic2" />
    <line x1="37" y1="32" x2="42" y2="50" class="ic ic2" />
    <line x1="34" y1="44" x2="40" y2="44" class="ic ic2" />
    <line x1="48" y1="32" x2="48" y2="50" class="ic ic2" />
    <line x1="45" y1="32" x2="51" y2="32" class="ic ic2" />
    <line x1="45" y1="50" x2="51" y2="50" class="ic ic2" />
  </g>
</svg>
