<svg xmlns="http://www.w3.org/2000/svg" viewBox="0 0 80 80" width="80" height="80">
  <style>.ic{fill:none;stroke:#004e9b;stroke-width:1.8;stroke-linecap:round;stroke-linejoin:round}.icf{fill:#004e9b;stroke:none}</style>
  <g transform="translate(4.9485,6.7) scale(0.876289)">
  <circle cx="14" cy="16" r="6" class="ic"/>
  <circle cx="40" cy="16" r="6" class="ic"/>
  <circle cx="66" cy="16" r="6" class="ic"/>
  <line x1="14" y1="22" x2="14" y2="34" class="ic"/>
  <line x1="40" y1="22" x2="40" y2="34" class="ic"/>
  <line x1="66" y1="22" x2="66" y2="34" class="ic"/>
  <rect x="3" y="34" width="22" height="18" rx="4" class="ic"/>
  <rect x="29" y="34" width="22" height="18" rx="4" class="ic"/>
  <rect x="55" y="34" width="22" height="18" rx="4" class="ic"/>
  <line x1="25" y1="43" x2="29" y2="43" class="ic"/>
  <line x1="51" y1="43" x2="55" y2="43" class="ic"/>
  <polyline points="8,62 11,68 20,58" class="ic" stroke-width="1.7"/>
  <polyline points="34,62 37,68 46,58" class="ic" stroke-width="1.7"/>
  <polyline points="60,62 63,68 72,58" class="ic" stroke-width="1.7"/>
</g></svg>
