<svg xmlns="http://www.w3.org/2000/svg" viewBox="0 0 80 80" width="80" height="80">
  <style>.ic{fill:none;stroke:#004e9b;stroke-width:1.8;stroke-linecap:round;stroke-linejoin:round}.icf{fill:#004e9b;stroke:none}</style>
  
  <g transform="translate(4.0212,4.0212) scale(0.899471)">
  <g>
    <path d="M 32 22 C 24 22 22 19 22 15 C 22 9 30 7 35 10 C 38 2 52 2 55 10 C 60 7 68 9 68 15 C 68 19 66 22 58 22 Z" class="ic"/>
  </g>

  <line x1="42" y1="27" x2="42" y2="40" class="ic"/>
  <polyline points="36,33 42,27 48,33" class="ic"/>

  <rect x="10" y="44" width="60" height="12" rx="3" class="ic"/>
  <rect x="10" y="62" width="60" height="12" rx="3" class="ic"/>

  <circle cx="62" cy="50" r="2.5" class="icf"/>
  <circle cx="62" cy="68" r="2.5" class="icf"/>

  <line x1="18" y1="50" x2="50" y2="50" class="ic" stroke-width="1.2"/>
  <line x1="18" y1="68" x2="50" y2="68" class="ic" stroke-width="1.2"/>
</g></svg>
